<svg id="Layer_1" data-name="Layer 1" xmlns="http://www.w3.org/2000/svg" viewBox="0 0 139.8 33.95"><defs><style>.cls-1{fill:#cb2127;}</style></defs><g id="LOGO"><g id="INOXA"><rect y="0.35" width="6.62" height="21.41"/><path d="M64.21,52.39V65L51.09,53.19a4.28,4.28,0,0,0-1.43-.94A3.79,3.79,0,0,0,48.43,52a4.18,4.18,0,0,0-1.36.23,3,3,0,0,0-1.15.7,3.5,3.5,0,0,0-.8,1.25A5,5,0,0,0,44.81,56V73.8h6V61.23L64,73a4,4,0,0,0,1.39,1,4.26,4.26,0,0,0,1.27.2A4.32,4.32,0,0,0,68,73.93a3,3,0,0,0,1.17-.72A3.63,3.63,0,0,0,70,72a5,5,0,0,0,.3-1.83V52.39Z" transform="translate(-34.16 -52.04)"/><path class="cls-1" d="M100.86,54.7Q96.95,52,89.13,52T77.39,54.7q-3.9,2.65-3.91,8.38t3.89,8.42q3.88,2.66,11.76,2.65t11.74-2.65q3.91-2.66,3.91-8.42T100.86,54.7ZM97.71,65.88a3.55,3.55,0,0,1-1.55,1.68,7.48,7.48,0,0,1-2.8.82,42.61,42.61,0,0,1-8.45,0,7.43,7.43,0,0,1-2.8-.82,3.5,3.5,0,0,1-1.55-1.68,8.41,8.41,0,0,1,0-5.6,3.46,3.46,0,0,1,1.55-1.66,7.63,7.63,0,0,1,2.8-.8,42.61,42.61,0,0,1,8.45,0,7.69,7.69,0,0,1,2.8.8,3.51,3.51,0,0,1,1.55,1.66,8.41,8.41,0,0,1,0,5.6Z" transform="translate(-34.16 -52.04)"/><path d="M130.79,67.37l-2.17-2L127.18,64c-.39-.36-.7-.63-.93-.82s-.45-.35-.64-.48l.66-.53.91-.77c.36-.3.8-.69,1.31-1.15l1.89-1.71,6.75-6.18h-8.58l-6.88,6.66-6.81-6.66h-9.19l6.56,6.15c.84.79,1.53,1.43,2.08,1.93l1.38,1.25c.36.33.66.59.9.77l.64.5-.66.51c-.25.19-.55.45-.91.77l-1.38,1.23c-.55.5-1.24,1.12-2,1.87l-7,6.43h8.22L121,66.73l7.3,7.07h9.34Z" transform="translate(-34.16 -52.04)"/><path d="M158.44,68.3h-5.38l-4,5.5H174L160.58,54.44a6.62,6.62,0,0,0-1.71-1.71,4.91,4.91,0,0,0-5.1.05,7.26,7.26,0,0,0-1.7,1.66L138.34,73.8h7.84l10-14.21,3.84,5.67q.54.76,1.14,1.65c.39.58.74,1.07,1,1.45-.51,0-1.12-.06-1.81-.06Z" transform="translate(-34.16 -52.04)"/></g><g id="WORLD"><polygon points="51.49 26.81 49.42 32.94 47.33 26.81 46.64 26.81 44.53 32.91 42.49 26.81 41.72 26.81 44.1 33.88 44.88 33.88 46.96 27.86 49.03 33.88 49.82 33.88 52.21 26.81 51.49 26.81"/><path d="M98.23,81a3.47,3.47,0,0,0-.77-1.15,3.71,3.71,0,0,0-1.18-.75,4.19,4.19,0,0,0-3,0,3.47,3.47,0,0,0-1.18.76,3.51,3.51,0,0,0-1.06,2.57,3.68,3.68,0,0,0,.28,1.43,3.52,3.52,0,0,0,2,1.9A4,4,0,0,0,94.8,86a3.94,3.94,0,0,0,1.48-.27A3.71,3.71,0,0,0,97.46,85a3.53,3.53,0,0,0,.77-1.14,3.59,3.59,0,0,0,.28-1.44A3.51,3.51,0,0,0,98.23,81Zm-.69,2.6a2.91,2.91,0,0,1-.62.93,2.82,2.82,0,0,1-.94.61,3,3,0,0,1-1.18.22,3.06,3.06,0,0,1-1.18-.22A2.78,2.78,0,0,1,92,83.55a3.11,3.11,0,0,1-.22-1.16A3.2,3.2,0,0,1,92,81.22a2.94,2.94,0,0,1,.63-.93,2.87,2.87,0,0,1,1-.61,3.06,3.06,0,0,1,1.18-.22,3,3,0,0,1,1.18.22,2.82,2.82,0,0,1,.94.61,2.91,2.91,0,0,1,.62.93,3,3,0,0,1,.22,1.17A3,3,0,0,1,97.54,83.56Z" transform="translate(-34.16 -52.04)"/><path d="M108.15,83.5a2.15,2.15,0,0,0,.27-.1,2.23,2.23,0,0,0,1-.83,2.35,2.35,0,0,0,.35-1.29,2.39,2.39,0,0,0-.35-1.31,2.17,2.17,0,0,0-1-.83,3.78,3.78,0,0,0-1.54-.29h-2.65v7.08H105V83.68h1.9a5.3,5.3,0,0,0,.57,0l1.61,2.28h.82Zm-1.29-.45H105V79.5h1.88a2.43,2.43,0,0,1,1.61.47,1.82,1.82,0,0,1,0,2.61A2.43,2.43,0,0,1,106.86,83.05Z" transform="translate(-34.16 -52.04)"/><polygon points="82.17 33.24 82.17 26.81 81.42 26.81 81.42 33.88 86.13 33.88 86.13 33.24 82.17 33.24"/><path d="M131.77,80.55a3.34,3.34,0,0,0-1.33-1.25,4.2,4.2,0,0,0-2-.45h-2.88v7.08h2.88a4.2,4.2,0,0,0,2-.45,3.34,3.34,0,0,0,1.33-1.25,3.84,3.84,0,0,0,0-3.68Zm-.65,3.34a2.65,2.65,0,0,1-1.08,1,3.35,3.35,0,0,1-1.63.37h-2.09V79.5h2.09a3.35,3.35,0,0,1,1.63.37,2.72,2.72,0,0,1,1.08,1,3.15,3.15,0,0,1,0,3Z" transform="translate(-34.16 -52.04)"/></g></g></svg>